# xmcd CD database file
#
# Track frame offsets:
#	183
#	14195
#	29260
#	47930
#	65450
#	83928
#	98630
#	114638
#	128753
#	146175
#	163895
#	179975
#
# Disc length: 2613 seconds
#
# Revision: 2
# Processed by: cddbd v1.4b41PL1 Copyright (c) Steve Scherf et al.
# Submitted via: Feurio! 1.50.2ß - http://www.feurio.com
#
DISCID=b60a330c
DTITLE=Various Artist - Superhits der 80er [CD2)
DYEAR=1900
DGENRE=
TTITLE0=Mike Krüger - Der Gnubbel
TTITLE1=Trio - Da Da Da
TTITLE2=Tommy Steiner - Die Fischer von San Juan
TTITLE3=Udo Lindenberg - Sonderzug nach Pankow
TTITLE4=Nino De Angelo - Atemlos
TTITLE5=Leinemann - Mein Tuut Tuut
TTITLE6=Karel Gott and Darnika - Fang das Licht
TTITLE7=Stephan Remmler - Keine Sterne in Athen
TTITLE8=Udo Lindenberg - Ich lieb' Dich überhaupt nicht mehr
TTITLE9=Jürgen Drews - Irgendwann, Irgendwo, Irgendwie
TTITLE10=Oliver Frank - Abschied von Fernando
TTITLE11=Ricky King - La ROse Noir
EXTD=
EXTT0=
EXTT1=
EXTT2=
EXTT3=
EXTT4=
EXTT5=
EXTT6=
EXTT7=
EXTT8=
EXTT9=
EXTT10=
EXTT11=
PLAYORDER=
